<svg xmlns="http://www.w3.org/2000/svg" xmlns:xlink="http://www.w3.org/1999/xlink" width="3000" zoomAndPan="magnify" viewBox="0 0 2250 2250.000011" height="3000" preserveAspectRatio="xMidYMid meet" version="1.0"><defs><g/><clipPath id="99614c68e7"><path d="M 313.078125 844.917969 L 792.804688 844.917969 L 792.804688 1373.476562 L 313.078125 1373.476562 Z M 313.078125 844.917969 " clip-rule="nonzero"/></clipPath><clipPath id="32b619cd8a"><path d="M 867.019531 848.785156 L 1360.421875 848.785156 L 1360.421875 1377 L 867.019531 1377 Z M 867.019531 848.785156 " clip-rule="nonzero"/></clipPath><clipPath id="45669f76d3"><path d="M 1434.640625 848.785156 L 1923.546875 848.785156 L 1923.546875 1377.339844 L 1434.640625 1377.339844 Z M 1434.640625 848.785156 " clip-rule="nonzero"/></clipPath><clipPath id="bb0224fff7"><path d="M 1434.640625 900 L 1996.890625 900 L 1996.890625 1323.925781 L 1434.640625 1323.925781 Z M 1434.640625 900 " clip-rule="nonzero"/></clipPath><clipPath id="bb0cb8d8fb"><path d="M 333 704.050781 L 432 704.050781 L 432 880.222656 L 333 880.222656 Z M 333 704.050781 " clip-rule="nonzero"/></clipPath><clipPath id="a339990021"><path d="M 253.109375 714 L 329 714 L 329 849 L 253.109375 849 Z M 253.109375 714 " clip-rule="nonzero"/></clipPath><clipPath id="346e52448a"><path d="M 271.359375 714.773438 C 269.671875 723.25 273.910156 731.984375 280.007812 738.085938 C 286.109375 744.183594 293.914062 748.246094 301.367188 752.605469 C 308.820312 756.964844 316.257812 761.921875 320.949219 769.179688 C 325.027344 775.492188 326.679688 783.050781 327.542969 790.519531 C 328.578125 799.554688 328.4375 809.066406 325.554688 817.59375 C 323.464844 812.457031 320.738281 807.535156 317.628906 802.949219 C 311.527344 793.914062 304.019531 785.933594 296.550781 778.003906 C 287.8125 768.742188 279.09375 759.476562 270.359375 750.214844 C 279.394531 767.160156 293.402344 780.800781 305.25 795.933594 C 317.101562 811.050781 327.191406 829.105469 326.082031 848.285156 C 325.203125 838.476562 317.242188 830.6875 308.609375 825.941406 C 299.976562 821.195312 290.292969 818.558594 281.765625 813.601562 C 265.664062 804.179688 254.835938 786.320312 253.992188 767.703125 C 253.148438 748.878906 261.746094 730.984375 271.359375 714.773438 Z M 271.359375 714.773438 " clip-rule="nonzero"/></clipPath><linearGradient x1="-1204.20996" gradientTransform="matrix(-0.175785, 0, 0, 0.175785, 79.350989, 704.052401)" y1="60.999775" x2="-1204.20996" gradientUnits="userSpaceOnUse" y2="820.499823" id="752705405c"><stop stop-opacity="1" stop-color="rgb(53.503418%, 74.87793%, 25.770569%)" offset="0"/><stop stop-opacity="1" stop-color="rgb(53.413391%, 74.772644%, 25.761414%)" offset="0.125"/><stop stop-opacity="1" stop-color="rgb(53.234863%, 74.565125%, 25.744629%)" offset="0.25"/><stop stop-opacity="1" stop-color="rgb(53.05481%, 74.356079%, 25.727844%)" offset="0.375"/><stop stop-opacity="1" stop-color="rgb(52.876282%, 74.147034%, 25.71106%)" offset="0.5"/><stop stop-opacity="1" stop-color="rgb(52.696228%, 73.939514%, 25.694275%)" offset="0.625"/><stop stop-opacity="1" stop-color="rgb(52.5177%, 73.730469%, 25.67749%)" offset="0.75"/><stop stop-opacity="1" stop-color="rgb(52.337646%, 73.522949%, 25.660706%)" offset="0.875"/><stop stop-opacity="1" stop-color="rgb(52.157593%, 73.313904%, 25.645447%)" offset="1"/></linearGradient></defs><g clip-path="url(#99614c68e7)"><path fill="#2e7d32" d="M 313.078125 844.917969 L 792.804688 844.917969 L 792.804688 1373.367188 L 313.078125 1373.367188 Z M 313.078125 844.917969 " fill-opacity="1" fill-rule="nonzero"/></g><g clip-path="url(#32b619cd8a)"><path fill="#8b5e3c" d="M 867.019531 848.785156 L 1360.421875 848.785156 L 1360.421875 1376.878906 L 867.019531 1376.878906 Z M 867.019531 848.785156 " fill-opacity="1" fill-rule="nonzero"/></g><g clip-path="url(#45669f76d3)"><path fill="#4a90e2" d="M 1434.640625 848.785156 L 1923.546875 848.785156 L 1923.546875 1377.796875 L 1434.640625 1377.796875 Z M 1434.640625 848.785156 " fill-opacity="1" fill-rule="nonzero"/></g><g clip-path="url(#bb0224fff7)"><path fill="#ffffff" d="M 2630.214844 1240.894531 C 2590.539062 1231.394531 2529.71875 1229.089844 2465.222656 1271.992188 C 2354.917969 1345.359375 2283.8125 1297.484375 2249.636719 1274.484375 C 2248.410156 1273.652344 2247.238281 1272.867188 2246.121094 1272.117188 C 2243.292969 1270.046875 2216.277344 1250.800781 2174.84375 1240.894531 C 2135.175781 1231.394531 2074.355469 1229.089844 2009.859375 1271.992188 C 1899.554688 1345.359375 1828.449219 1297.484375 1794.273438 1274.484375 C 1793.167969 1273.734375 1792.109375 1273.023438 1791.074219 1272.332031 C 1787.433594 1269.691406 1760.660156 1250.976562 1720 1241.25 C 1680.332031 1231.753906 1619.503906 1229.445312 1555.019531 1272.347656 C 1444.707031 1345.714844 1373.601562 1297.847656 1339.429688 1274.839844 C 1338.207031 1274.015625 1337.035156 1273.230469 1335.90625 1272.472656 C 1333.078125 1270.402344 1306.0625 1251.164062 1264.628906 1241.25 C 1224.964844 1231.753906 1164.140625 1229.445312 1099.648438 1272.347656 C 989.34375 1345.714844 918.238281 1297.847656 884.0625 1274.839844 C 882.769531 1273.972656 881.539062 1273.140625 880.359375 1272.355469 L 870.320312 1287.410156 C 871.476562 1288.171875 872.695312 1288.996094 873.964844 1289.851562 C 891.390625 1301.582031 920.566406 1321.222656 960.183594 1327.589844 C 968.796875 1328.976562 977.5 1329.664062 986.285156 1329.664062 C 1026.042969 1329.664062 1067.421875 1315.507812 1109.671875 1287.410156 C 1135.671875 1270.113281 1163.109375 1259.324219 1191.234375 1255.339844 C 1213.730469 1252.148438 1236.777344 1253.277344 1259.726562 1258.679688 C 1299.183594 1267.96875 1325.042969 1286.941406 1325.304688 1287.132812 C 1326.460938 1287.90625 1328.054688 1288.996094 1329.324219 1289.851562 C 1346.753906 1301.582031 1375.929688 1321.222656 1415.546875 1327.589844 C 1424.167969 1328.976562 1432.863281 1329.664062 1441.65625 1329.664062 C 1481.40625 1329.664062 1522.792969 1315.507812 1565.035156 1287.410156 C 1591.035156 1270.113281 1618.472656 1259.324219 1646.59375 1255.339844 C 1669.09375 1252.148438 1692.136719 1253.277344 1715.089844 1258.679688 C 1753.167969 1267.640625 1778.582031 1285.628906 1780.539062 1287.039062 L 1780.53125 1287.046875 C 1781.691406 1287.816406 1782.90625 1288.632812 1784.167969 1289.488281 C 1801.605469 1301.226562 1830.773438 1320.867188 1870.386719 1327.230469 C 1879.011719 1328.613281 1887.714844 1329.308594 1896.5 1329.308594 C 1936.246094 1329.300781 1977.636719 1315.152344 2019.878906 1287.054688 C 2045.878906 1269.757812 2073.324219 1258.96875 2101.4375 1254.984375 C 2123.941406 1251.792969 2146.980469 1252.914062 2169.929688 1258.324219 C 2209.390625 1267.613281 2235.257812 1286.585938 2235.507812 1286.777344 C 2236.667969 1287.542969 2238.269531 1288.632812 2239.539062 1289.488281 C 2256.96875 1301.226562 2286.140625 1320.867188 2325.757812 1327.230469 C 2334.371094 1328.613281 2343.074219 1329.308594 2351.859375 1329.308594 C 2391.609375 1329.300781 2433 1315.152344 2475.246094 1287.054688 C 2501.246094 1269.757812 2528.6875 1258.96875 2556.808594 1254.984375 C 2579.304688 1251.792969 2602.351562 1252.914062 2625.300781 1258.324219 C 2664.753906 1267.613281 2690.617188 1286.585938 2690.871094 1286.777344 L 2701.695312 1272.273438 C 2700.546875 1271.417969 2673.09375 1251.148438 2630.214844 1240.894531 Z M 2630.214844 1129.328125 C 2590.539062 1119.835938 2529.71875 1117.53125 2465.222656 1160.425781 C 2354.917969 1233.800781 2283.8125 1185.925781 2249.636719 1162.925781 C 2248.410156 1162.09375 2247.238281 1161.308594 2246.121094 1160.558594 C 2243.292969 1158.488281 2216.277344 1139.238281 2174.84375 1129.328125 C 2135.175781 1119.835938 2074.355469 1117.53125 2009.859375 1160.425781 C 1899.554688 1233.800781 1828.449219 1185.925781 1794.273438 1162.925781 C 1793.167969 1162.175781 1792.109375 1161.460938 1791.074219 1160.773438 C 1787.433594 1158.125 1760.660156 1139.417969 1720 1129.691406 C 1680.332031 1120.191406 1619.503906 1117.894531 1555.019531 1160.789062 C 1444.707031 1234.15625 1373.601562 1186.28125 1339.429688 1163.28125 C 1338.207031 1162.457031 1337.035156 1161.664062 1335.90625 1160.914062 C 1333.078125 1158.84375 1306.0625 1139.597656 1264.628906 1129.691406 C 1224.964844 1120.191406 1164.140625 1117.894531 1099.648438 1160.789062 C 989.34375 1234.15625 918.238281 1186.28125 884.0625 1163.28125 C 882.769531 1162.414062 881.539062 1161.582031 880.359375 1160.789062 L 870.320312 1175.84375 C 871.476562 1176.621094 872.695312 1177.429688 873.964844 1178.285156 C 891.390625 1190.023438 920.566406 1209.664062 960.183594 1216.027344 C 968.796875 1217.410156 977.5 1218.105469 986.285156 1218.105469 C 1026.042969 1218.097656 1067.421875 1203.949219 1109.671875 1175.851562 C 1135.671875 1158.554688 1163.109375 1147.765625 1191.234375 1143.78125 C 1213.730469 1140.589844 1236.777344 1141.71875 1259.726562 1147.121094 C 1299.183594 1156.410156 1325.042969 1175.382812 1325.304688 1175.574219 C 1326.460938 1176.347656 1328.054688 1177.429688 1329.324219 1178.285156 C 1346.753906 1190.023438 1375.929688 1209.664062 1415.546875 1216.027344 C 1424.167969 1217.410156 1432.863281 1218.105469 1441.65625 1218.105469 C 1481.40625 1218.097656 1522.792969 1203.949219 1565.035156 1175.851562 C 1591.035156 1158.554688 1618.472656 1147.765625 1646.59375 1143.78125 C 1669.09375 1140.589844 1692.136719 1141.71875 1715.089844 1147.121094 C 1753.167969 1156.082031 1778.582031 1174.070312 1780.539062 1175.480469 L 1780.53125 1175.488281 C 1781.691406 1176.257812 1782.90625 1177.074219 1784.167969 1177.925781 C 1801.605469 1189.667969 1830.773438 1209.308594 1870.386719 1215.671875 C 1879.011719 1217.054688 1887.714844 1217.75 1896.5 1217.75 C 1936.246094 1217.742188 1977.636719 1203.59375 2019.878906 1175.492188 C 2045.878906 1158.199219 2073.324219 1147.410156 2101.4375 1143.417969 C 2123.941406 1140.234375 2146.980469 1141.355469 2169.929688 1146.765625 C 2209.390625 1156.046875 2235.257812 1175.027344 2235.507812 1175.210938 C 2236.667969 1175.984375 2238.269531 1177.074219 2239.539062 1177.925781 C 2256.96875 1189.667969 2286.140625 1209.308594 2325.757812 1215.671875 C 2334.371094 1217.054688 2343.074219 1217.75 2351.859375 1217.75 C 2391.609375 1217.742188 2433 1203.59375 2475.246094 1175.492188 C 2501.246094 1158.199219 2528.6875 1147.410156 2556.808594 1143.417969 C 2579.304688 1140.234375 2602.351562 1141.355469 2625.300781 1146.765625 C 2664.753906 1156.046875 2690.617188 1175.027344 2690.871094 1175.210938 L 2701.695312 1160.714844 C 2700.546875 1159.851562 2673.09375 1139.589844 2630.214844 1129.328125 Z M 2630.214844 1017.769531 C 2590.539062 1008.277344 2529.71875 1005.96875 2465.222656 1048.863281 C 2354.917969 1122.242188 2283.8125 1074.367188 2249.636719 1051.359375 C 2248.410156 1050.535156 2247.238281 1049.75 2246.121094 1049 C 2243.292969 1046.929688 2216.277344 1027.679688 2174.84375 1017.769531 C 2135.175781 1008.277344 2074.355469 1005.96875 2009.859375 1048.863281 C 1899.554688 1122.242188 1828.449219 1074.367188 1794.273438 1051.359375 C 1793.167969 1050.617188 1792.109375 1049.902344 1791.074219 1049.214844 C 1787.433594 1046.566406 1760.660156 1027.859375 1720 1018.132812 C 1680.332031 1008.632812 1619.503906 1006.328125 1555.019531 1049.230469 C 1444.707031 1122.597656 1373.601562 1074.722656 1339.429688 1051.722656 C 1338.207031 1050.890625 1337.035156 1050.105469 1335.90625 1049.355469 C 1333.078125 1047.285156 1306.0625 1028.039062 1264.628906 1018.132812 C 1224.964844 1008.632812 1164.140625 1006.328125 1099.648438 1049.230469 C 989.34375 1122.597656 918.238281 1074.722656 884.0625 1051.722656 C 882.769531 1050.855469 881.539062 1050.015625 880.359375 1049.230469 L 870.320312 1064.285156 C 871.476562 1065.054688 872.695312 1065.871094 873.964844 1066.726562 C 891.390625 1078.464844 920.566406 1098.105469 960.183594 1104.46875 C 968.796875 1105.859375 977.5 1106.546875 986.285156 1106.546875 C 1026.042969 1106.546875 1067.421875 1092.390625 1109.671875 1064.292969 C 1135.671875 1046.996094 1163.109375 1036.207031 1191.234375 1032.222656 C 1213.730469 1029.03125 1236.777344 1030.152344 1259.726562 1035.5625 C 1299.183594 1044.851562 1325.042969 1063.824219 1325.304688 1064.007812 C 1326.460938 1064.789062 1328.054688 1065.871094 1329.324219 1066.726562 C 1346.753906 1078.464844 1375.929688 1098.105469 1415.546875 1104.46875 C 1424.167969 1105.859375 1432.863281 1106.546875 1441.65625 1106.546875 C 1481.40625 1106.546875 1522.792969 1092.390625 1565.035156 1064.292969 C 1591.035156 1046.996094 1618.472656 1036.207031 1646.59375 1032.222656 C 1669.09375 1029.03125 1692.136719 1030.152344 1715.089844 1035.5625 C 1753.167969 1044.523438 1778.582031 1062.503906 1780.539062 1063.921875 L 1780.53125 1063.925781 C 1781.691406 1064.699219 1782.90625 1065.515625 1784.167969 1066.367188 C 1801.605469 1078.105469 1830.773438 1097.746094 1870.386719 1104.113281 C 1879.011719 1105.496094 1887.714844 1106.183594 1896.5 1106.183594 C 1936.246094 1106.183594 1977.636719 1092.035156 2019.878906 1063.933594 C 2045.878906 1046.640625 2073.324219 1035.84375 2101.4375 1031.859375 C 2123.941406 1028.675781 2146.980469 1029.796875 2169.929688 1035.199219 C 2209.390625 1044.488281 2235.257812 1063.460938 2235.507812 1063.652344 C 2236.667969 1064.425781 2238.269531 1065.515625 2239.539062 1066.367188 C 2256.96875 1078.105469 2286.140625 1097.746094 2325.757812 1104.113281 C 2334.371094 1105.496094 2343.074219 1106.183594 2351.859375 1106.183594 C 2391.609375 1106.183594 2433 1092.035156 2475.246094 1063.933594 C 2501.246094 1046.640625 2528.6875 1035.84375 2556.808594 1031.859375 C 2579.304688 1028.675781 2602.351562 1029.796875 2625.300781 1035.199219 C 2664.753906 1044.488281 2690.617188 1063.460938 2690.871094 1063.652344 L 2701.695312 1049.15625 C 2700.546875 1048.292969 2673.09375 1028.03125 2630.214844 1017.769531 Z M 2701.695312 937.59375 L 2690.871094 952.09375 C 2690.617188 951.902344 2664.753906 932.929688 2625.300781 923.636719 C 2602.351562 918.238281 2579.304688 917.117188 2556.808594 920.300781 C 2528.6875 924.285156 2501.246094 935.082031 2475.246094 952.375 C 2433 980.476562 2391.609375 994.625 2351.859375 994.625 C 2343.074219 994.625 2334.371094 993.933594 2325.757812 992.546875 C 2286.140625 986.1875 2256.96875 966.546875 2239.539062 954.808594 C 2238.269531 953.957031 2236.667969 952.867188 2235.507812 952.09375 C 2235.257812 951.902344 2209.390625 932.929688 2169.929688 923.636719 C 2146.980469 918.238281 2123.941406 917.117188 2101.4375 920.300781 C 2073.324219 924.285156 2045.878906 935.082031 2019.878906 952.375 C 1977.636719 980.476562 1936.246094 994.625 1896.5 994.625 C 1887.714844 994.625 1879.011719 993.933594 1870.386719 992.546875 C 1830.773438 986.1875 1801.605469 966.539062 1784.167969 954.808594 C 1782.90625 953.957031 1781.691406 953.140625 1780.53125 952.367188 L 1780.539062 952.359375 C 1778.582031 950.945312 1753.167969 932.964844 1715.089844 923.996094 C 1692.136719 918.59375 1669.09375 917.472656 1646.59375 920.664062 C 1618.472656 924.648438 1591.035156 935.4375 1565.035156 952.730469 C 1522.792969 980.832031 1481.40625 994.980469 1441.65625 994.980469 C 1432.863281 994.980469 1424.167969 994.292969 1415.546875 992.910156 C 1375.929688 986.546875 1346.753906 966.90625 1329.324219 955.164062 C 1328.054688 954.3125 1326.460938 953.222656 1325.304688 952.449219 C 1325.042969 952.257812 1299.183594 933.285156 1259.726562 923.996094 C 1236.777344 918.59375 1213.730469 917.472656 1191.234375 920.664062 C 1163.109375 924.648438 1135.671875 935.4375 1109.671875 952.730469 C 1067.421875 980.832031 1026.042969 994.980469 986.285156 994.980469 C 977.5 994.980469 968.796875 994.292969 960.183594 992.910156 C 920.566406 986.546875 891.390625 966.90625 873.964844 955.164062 C 872.695312 954.3125 871.476562 953.496094 870.320312 952.726562 L 880.359375 937.667969 C 881.539062 938.457031 882.769531 939.289062 884.0625 940.15625 C 918.238281 963.164062 989.34375 1011.039062 1099.648438 937.667969 C 1164.140625 894.769531 1224.964844 897.074219 1264.628906 906.566406 C 1306.0625 916.476562 1333.078125 935.726562 1335.90625 937.796875 C 1337.035156 938.546875 1338.207031 939.332031 1339.429688 940.15625 C 1373.601562 963.164062 1444.707031 1011.039062 1555.019531 937.667969 C 1619.503906 894.769531 1680.332031 897.074219 1720 906.566406 C 1760.660156 916.300781 1787.433594 935.007812 1791.074219 937.65625 C 1792.109375 938.335938 1793.167969 939.058594 1794.273438 939.800781 C 1828.449219 962.808594 1899.554688 1010.683594 2009.859375 937.304688 C 2074.355469 894.410156 2135.175781 896.710938 2174.84375 906.210938 C 2216.277344 916.121094 2243.292969 935.363281 2246.121094 937.441406 C 2247.238281 938.1875 2248.410156 938.976562 2249.636719 939.800781 C 2283.8125 962.808594 2354.917969 1010.683594 2465.222656 937.304688 C 2529.71875 894.410156 2590.539062 896.710938 2630.214844 906.210938 C 2673.09375 916.472656 2700.546875 936.734375 2701.695312 937.59375 " fill-opacity="1" fill-rule="nonzero"/></g><g clip-path="url(#bb0cb8d8fb)"><path fill="#2e7d32" d="M 408.929688 704.050781 C 411.164062 715.230469 405.574219 726.765625 397.519531 734.816406 C 389.46875 742.882812 379.167969 748.226562 369.34375 753.976562 C 359.5 759.722656 349.671875 766.28125 343.503906 775.859375 C 338.125 784.191406 335.925781 794.175781 334.800781 804.019531 C 333.394531 815.976562 333.589844 828.507812 337.386719 839.757812 C 340.144531 832.972656 343.75 826.488281 347.84375 820.421875 C 355.894531 808.484375 365.808594 797.957031 375.671875 787.480469 C 387.203125 775.246094 398.714844 763.027344 410.25 750.792969 C 398.3125 773.152344 379.820312 791.1875 364.191406 811.140625 C 348.566406 831.109375 335.242188 854.945312 336.699219 880.257812 C 337.859375 867.304688 348.371094 857.019531 359.78125 850.761719 C 371.1875 844.503906 383.96875 841.007812 395.199219 834.46875 C 416.453125 822.09375 430.746094 798.5 431.851562 773.925781 C 432.976562 749.070312 421.640625 725.429688 408.929688 704.050781 Z M 408.929688 704.050781 " fill-opacity="1" fill-rule="nonzero"/></g><g clip-path="url(#a339990021)"><g clip-path="url(#346e52448a)"><path fill="url(#752705405c)" d="M 328.578125 714.773438 L 328.578125 848.285156 L 253.148438 848.285156 L 253.148438 714.773438 Z M 328.578125 714.773438 " fill-rule="nonzero"/></g></g><g fill="#ffffff" fill-opacity="1"><g transform="translate(366.090859, 1327.342695)"><g><path d="M 265.25 -216.28125 C 285.90625 -212.15625 301.601562 -205.132812 312.34375 -195.21875 C 323.082031 -185.300781 330.722656 -174.96875 335.265625 -164.21875 C 339.816406 -153.476562 342.398438 -144.179688 343.015625 -136.328125 C 343.640625 -128.484375 343.953125 -124.5625 343.953125 -124.5625 C 343.953125 -100.601562 339.816406 -80.976562 331.546875 -65.6875 C 323.285156 -50.40625 312.648438 -38.320312 299.640625 -29.4375 C 286.628906 -20.550781 273.097656 -13.9375 259.046875 -9.59375 C 245.003906 -5.257812 231.988281 -2.578125 220 -1.546875 C 208.019531 -0.515625 199.140625 0 193.359375 0 L 48.953125 0 L 48.953125 -433.8125 L 193.359375 -433.8125 C 193.359375 -433.8125 196.867188 -433.601562 203.890625 -433.1875 C 210.910156 -432.78125 219.894531 -431.644531 230.84375 -429.78125 C 241.800781 -427.925781 253.375 -424.625 265.5625 -419.875 C 277.75 -415.125 289.316406 -408.203125 300.265625 -399.109375 C 311.210938 -390.015625 320.195312 -378.441406 327.21875 -364.390625 C 334.238281 -350.347656 337.75 -332.789062 337.75 -311.71875 C 337.75 -292.71875 334.335938 -276.707031 327.515625 -263.6875 C 320.703125 -250.675781 311.71875 -240.347656 300.5625 -232.703125 C 289.414062 -225.066406 277.644531 -219.59375 265.25 -216.28125 Z M 120.84375 -252.859375 L 193.359375 -252.859375 C 193.359375 -252.859375 196.972656 -253.164062 204.203125 -253.78125 C 211.429688 -254.394531 219.796875 -256.351562 229.296875 -259.65625 C 238.804688 -262.96875 247.175781 -268.238281 254.40625 -275.46875 C 261.632812 -282.695312 265.25 -293.128906 265.25 -306.765625 C 265.25 -321.222656 261.632812 -332.273438 254.40625 -339.921875 C 247.175781 -347.566406 238.804688 -352.9375 229.296875 -356.03125 C 219.796875 -359.132812 211.429688 -360.890625 204.203125 -361.296875 C 196.972656 -361.710938 193.359375 -361.921875 193.359375 -361.921875 L 120.84375 -361.921875 Z M 193.359375 -71.890625 C 203.679688 -71.890625 214.832031 -73.128906 226.8125 -75.609375 C 238.800781 -78.085938 249.234375 -83.25 258.109375 -91.09375 C 266.992188 -98.945312 271.4375 -110.722656 271.4375 -126.421875 C 271.4375 -137.992188 268.851562 -147.289062 263.6875 -154.3125 C 258.53125 -161.332031 252.023438 -166.703125 244.171875 -170.421875 C 236.328125 -174.140625 228.476562 -176.722656 220.625 -178.171875 C 212.769531 -179.617188 206.257812 -180.34375 201.09375 -180.34375 C 195.9375 -180.34375 193.359375 -180.34375 193.359375 -180.34375 L 120.84375 -180.34375 L 120.84375 -71.890625 Z M 193.359375 -71.890625 "/></g></g></g><g fill="#ffffff" fill-opacity="1"><g transform="translate(922.03675, 1320.686167)"><g><path d="M 116.21875 -415.078125 C 136.382812 -415.078125 157.632812 -413.691406 179.96875 -410.921875 C 202.300781 -408.160156 224.039062 -402.828125 245.1875 -394.921875 C 266.34375 -387.015625 285.414062 -375.453125 302.40625 -360.234375 C 319.40625 -345.015625 333.046875 -324.953125 343.328125 -300.046875 C 353.609375 -275.140625 358.75 -244.300781 358.75 -207.53125 C 358.75 -171.957031 353.707031 -142.015625 343.625 -117.703125 C 333.539062 -93.390625 320 -73.425781 303 -57.8125 C 286.007812 -42.195312 267.035156 -30.238281 246.078125 -21.9375 C 225.128906 -13.632812 203.390625 -7.898438 180.859375 -4.734375 C 158.328125 -1.578125 136.78125 0 116.21875 0 L 46.84375 0 L 46.84375 -415.078125 Z M 116.21875 -67.59375 C 116.21875 -67.59375 120.367188 -67.296875 128.671875 -66.703125 C 136.972656 -66.109375 147.644531 -66.40625 160.6875 -67.59375 C 173.738281 -68.78125 187.675781 -71.644531 202.5 -76.1875 C 217.320312 -80.738281 231.253906 -88.148438 244.296875 -98.421875 C 257.347656 -108.703125 268.023438 -122.640625 276.328125 -140.234375 C 284.628906 -157.828125 288.78125 -180.257812 288.78125 -207.53125 C 288.78125 -235.207031 284.628906 -257.9375 276.328125 -275.71875 C 268.023438 -293.507812 257.347656 -307.546875 244.296875 -317.828125 C 231.253906 -328.109375 217.320312 -335.421875 202.5 -339.765625 C 187.675781 -344.117188 173.738281 -346.789062 160.6875 -347.78125 C 147.644531 -348.769531 136.972656 -348.96875 128.671875 -348.375 C 120.367188 -347.78125 116.21875 -347.484375 116.21875 -347.484375 Z M 116.21875 -67.59375 "/></g></g></g><g fill="#ffffff" fill-opacity="1"><g transform="translate(1592.330042, 1327.342695)"><g><path d="M 50.8125 0 L 50.8125 -433.8125 L 123.328125 -433.8125 L 123.328125 0 Z M 50.8125 0 "/></g></g></g><g fill="#000000" fill-opacity="1"><g transform="translate(319.442579, 1486.542608)"><g><path d="M 25.46875 -15.203125 L 59.125 -15.203125 L 59.125 0 L 10.265625 0 L 10.265625 -90.953125 L 25.46875 -90.953125 Z M 25.46875 -15.203125 "/></g></g></g><g fill="#000000" fill-opacity="1"><g transform="translate(385.581215, 1486.542608)"><g><path d="M 52.234375 -10.53125 L 20.265625 -10.53125 L 16.375 0 L 0 0 L 36.25 -93.5625 L 72.640625 0 L 56.265625 0 Z M 25.203125 -23.65625 L 47.296875 -23.65625 L 36.25 -55.21875 Z M 25.203125 -23.65625 "/></g></g></g><g fill="#000000" fill-opacity="1"><g transform="translate(459.256281, 1486.542608)"><g><path d="M 86.015625 0 L 70.6875 0 L 25.46875 -64.703125 L 25.46875 0 L 10.265625 0 L 10.265625 -90.953125 L 25.59375 -90.953125 L 70.953125 -26.25 L 70.953125 -90.953125 L 86.015625 -90.953125 Z M 86.015625 0 "/></g></g></g><g fill="#000000" fill-opacity="1"><g transform="translate(556.710058, 1486.542608)"><g><path d="M 25.46875 -90.953125 C 29.882812 -90.953125 34.539062 -90.648438 39.4375 -90.046875 C 44.332031 -89.441406 49.097656 -88.269531 53.734375 -86.53125 C 58.367188 -84.800781 62.546875 -82.269531 66.265625 -78.9375 C 69.992188 -75.601562 72.984375 -71.207031 75.234375 -65.75 C 77.484375 -60.289062 78.609375 -53.535156 78.609375 -45.484375 C 78.609375 -37.679688 77.503906 -31.113281 75.296875 -25.78125 C 73.085938 -20.457031 70.117188 -16.082031 66.390625 -12.65625 C 62.671875 -9.238281 58.515625 -6.617188 53.921875 -4.796875 C 49.328125 -2.984375 44.5625 -1.726562 39.625 -1.03125 C 34.6875 -0.34375 29.96875 0 25.46875 0 L 10.265625 0 L 10.265625 -90.953125 Z M 25.46875 -14.8125 C 25.46875 -14.8125 26.375 -14.742188 28.1875 -14.609375 C 30.007812 -14.484375 32.347656 -14.550781 35.203125 -14.8125 C 38.066406 -15.070312 41.125 -15.695312 44.375 -16.6875 C 47.625 -17.6875 50.675781 -19.3125 53.53125 -21.5625 C 56.394531 -23.820312 58.734375 -26.878906 60.546875 -30.734375 C 62.367188 -34.585938 63.28125 -39.503906 63.28125 -45.484375 C 63.28125 -51.546875 62.367188 -56.523438 60.546875 -60.421875 C 58.734375 -64.316406 56.394531 -67.390625 53.53125 -69.640625 C 50.675781 -71.898438 47.625 -73.503906 44.375 -74.453125 C 41.125 -75.410156 38.066406 -75.992188 35.203125 -76.203125 C 32.347656 -76.421875 30.007812 -76.460938 28.1875 -76.328125 C 26.375 -76.203125 25.46875 -76.140625 25.46875 -76.140625 Z M 25.46875 -14.8125 "/></g></g></g><g fill="#000000" fill-opacity="1"><g transform="translate(643.768774, 1486.542608)"><g><path d="M 35.46875 1.296875 C 30.269531 1.128906 25.523438 0.03125 21.234375 -2 C 16.953125 -4.039062 13.53125 -7.007812 10.96875 -10.90625 C 8.414062 -14.8125 7.097656 -19.578125 7.015625 -25.203125 L 22.21875 -25.203125 C 22.394531 -21.484375 23.800781 -18.671875 26.4375 -16.765625 C 29.082031 -14.859375 32.09375 -13.90625 35.46875 -13.90625 C 39.019531 -13.90625 42.113281 -14.941406 44.75 -17.015625 C 47.394531 -19.097656 48.71875 -21.914062 48.71875 -25.46875 C 48.71875 -28.0625 48.046875 -30.289062 46.703125 -32.15625 C 45.367188 -34.019531 43.679688 -35.472656 41.640625 -36.515625 C 39.609375 -37.554688 37.550781 -38.117188 35.46875 -38.203125 C 35.125 -38.203125 33.585938 -38.332031 30.859375 -38.59375 C 28.128906 -38.851562 25.117188 -39.71875 21.828125 -41.1875 C 17.066406 -43.4375 13.40625 -46.53125 10.84375 -50.46875 C 8.289062 -54.414062 7.015625 -59.078125 7.015625 -64.453125 C 7.015625 -70.253906 8.359375 -75.210938 11.046875 -79.328125 C 13.734375 -83.441406 17.265625 -86.625 21.640625 -88.875 C 26.015625 -91.125 30.625 -92.25 35.46875 -92.25 C 40.757812 -92.25 45.503906 -91.144531 49.703125 -88.9375 C 53.898438 -86.726562 57.234375 -83.675781 59.703125 -79.78125 C 62.171875 -75.882812 63.453125 -71.335938 63.546875 -66.140625 L 48.46875 -66.140625 C 48.382812 -69.953125 47.0625 -72.722656 44.5 -74.453125 C 41.945312 -76.179688 38.9375 -77.046875 35.46875 -77.046875 C 31.914062 -77.046875 28.816406 -76.003906 26.171875 -73.921875 C 23.535156 -71.847656 22.21875 -68.691406 22.21875 -64.453125 C 22.21875 -60.722656 23.582031 -57.863281 26.3125 -55.875 C 29.039062 -53.882812 32.09375 -52.890625 35.46875 -52.890625 C 35.820312 -52.890625 37.359375 -52.757812 40.078125 -52.5 C 42.804688 -52.238281 45.773438 -51.367188 48.984375 -49.890625 C 53.835938 -47.722656 57.519531 -44.453125 60.03125 -40.078125 C 62.539062 -35.710938 63.796875 -30.84375 63.796875 -25.46875 C 63.796875 -19.664062 62.453125 -14.769531 59.765625 -10.78125 C 57.085938 -6.800781 53.601562 -3.789062 49.3125 -1.75 C 45.019531 0.28125 40.40625 1.296875 35.46875 1.296875 Z M 35.46875 1.296875 "/></g></g></g><g fill="#000000" fill-opacity="1"><g transform="translate(715.364835, 1486.542608)"><g><path d="M 52.75 -13.90625 C 56.90625 -13.90625 60.847656 -14.707031 64.578125 -16.3125 C 68.304688 -17.914062 71.507812 -20.054688 74.1875 -22.734375 L 84.84375 -11.953125 C 80.769531 -7.878906 75.984375 -4.648438 70.484375 -2.265625 C 64.984375 0.109375 59.070312 1.296875 52.75 1.296875 C 46.519531 1.296875 40.628906 0.210938 35.078125 -1.953125 C 29.535156 -4.117188 24.6875 -7.257812 20.53125 -11.375 C 16.375 -15.488281 13.101562 -20.425781 10.71875 -26.1875 C 8.332031 -31.945312 7.140625 -38.378906 7.140625 -45.484375 C 7.140625 -54.660156 9.085938 -62.753906 12.984375 -69.765625 C 16.890625 -76.785156 22.285156 -82.285156 29.171875 -86.265625 C 36.054688 -90.253906 43.914062 -92.25 52.75 -92.25 C 59.070312 -92.25 64.984375 -91.054688 70.484375 -88.671875 C 75.984375 -86.296875 80.769531 -83.03125 84.84375 -78.875 L 74.1875 -68.21875 C 71.507812 -70.988281 68.304688 -73.148438 64.578125 -74.703125 C 60.847656 -76.265625 56.90625 -77.046875 52.75 -77.046875 C 46.519531 -77.046875 41.148438 -75.679688 36.640625 -72.953125 C 32.140625 -70.222656 28.675781 -66.5 26.25 -61.78125 C 23.820312 -57.0625 22.609375 -51.628906 22.609375 -45.484375 C 22.609375 -38.984375 23.953125 -33.367188 26.640625 -28.640625 C 29.328125 -23.921875 32.960938 -20.285156 37.546875 -17.734375 C 42.140625 -15.179688 47.207031 -13.90625 52.75 -13.90625 Z M 52.75 -13.90625 "/></g></g></g><g fill="#000000" fill-opacity="1"><g transform="translate(806.581585, 1486.542608)"><g><path d="M 52.234375 -10.53125 L 20.265625 -10.53125 L 16.375 0 L 0 0 L 36.25 -93.5625 L 72.640625 0 L 56.265625 0 Z M 25.203125 -23.65625 L 47.296875 -23.65625 L 36.25 -55.21875 Z M 25.203125 -23.65625 "/></g></g></g><g fill="#000000" fill-opacity="1"><g transform="translate(880.256662, 1486.542608)"><g><path d="M 40.671875 -90.953125 C 40.671875 -90.953125 41.40625 -90.910156 42.875 -90.828125 C 44.351562 -90.742188 46.238281 -90.460938 48.53125 -89.984375 C 50.820312 -89.503906 53.265625 -88.722656 55.859375 -87.640625 C 58.460938 -86.554688 60.910156 -85.039062 63.203125 -83.09375 C 65.503906 -81.144531 67.390625 -78.632812 68.859375 -75.5625 C 70.335938 -72.488281 71.078125 -68.738281 71.078125 -64.3125 C 71.078125 -59.894531 70.335938 -56.148438 68.859375 -53.078125 C 67.390625 -50.003906 65.503906 -47.492188 63.203125 -45.546875 C 60.910156 -43.597656 58.460938 -42.082031 55.859375 -41 C 53.265625 -39.914062 50.820312 -39.132812 48.53125 -38.65625 C 46.238281 -38.175781 44.351562 -37.894531 42.875 -37.8125 C 41.40625 -37.726562 40.671875 -37.6875 40.671875 -37.6875 L 25.46875 -37.6875 L 25.46875 0.265625 L 10.265625 0.265625 L 10.265625 -90.953125 Z M 40.671875 -52.890625 C 40.671875 -52.890625 41.425781 -52.953125 42.9375 -53.078125 C 44.457031 -53.210938 46.234375 -53.625 48.265625 -54.3125 C 50.304688 -55.007812 52.082031 -56.132812 53.59375 -57.6875 C 55.113281 -59.25 55.875 -61.457031 55.875 -64.3125 C 55.875 -67.175781 55.113281 -69.382812 53.59375 -70.9375 C 52.082031 -72.5 50.304688 -73.625 48.265625 -74.3125 C 46.234375 -75.007812 44.457031 -75.421875 42.9375 -75.546875 C 41.425781 -75.679688 40.671875 -75.75 40.671875 -75.75 L 25.46875 -75.75 L 25.46875 -52.890625 Z M 40.671875 -52.890625 "/></g></g></g><g fill="#000000" fill-opacity="1"><g transform="translate(956.660446, 1486.542608)"><g><path d="M 25.46875 -75.75 L 25.46875 -53.015625 L 63.28125 -53.015625 L 63.28125 -37.9375 L 25.46875 -37.9375 L 25.46875 -15.203125 L 70.953125 -15.203125 L 70.953125 0 L 10.265625 0 L 10.265625 -90.953125 L 70.953125 -90.953125 L 70.953125 -75.75 Z M 25.46875 -75.75 "/></g></g></g><g fill="#000000" fill-opacity="1"><g transform="translate(1034.103716, 1486.542608)"><g/></g></g><g fill="#000000" fill-opacity="1"><g transform="translate(1079.971985, 1486.542608)"><g><path d="M 81.734375 -10.78125 L 70.953125 0 L 60.15625 -10.78125 C 56.957031 -6.800781 53.101562 -3.878906 48.59375 -2.015625 C 44.09375 -0.148438 39.4375 0.671875 34.625 0.453125 C 29.820312 0.234375 25.273438 -0.910156 20.984375 -2.984375 C 16.691406 -5.066406 13.207031 -7.96875 10.53125 -11.6875 C 7.582031 -15.9375 5.867188 -20.460938 5.390625 -25.265625 C 4.910156 -30.078125 5.601562 -34.753906 7.46875 -39.296875 C 9.332031 -43.847656 12.300781 -47.898438 16.375 -51.453125 C 13.945312 -53.535156 11.992188 -56.09375 10.515625 -59.125 C 9.046875 -62.15625 8.3125 -65.398438 8.3125 -68.859375 C 8.3125 -73.023438 9.347656 -76.835938 11.421875 -80.296875 C 13.503906 -83.765625 16.253906 -86.515625 19.671875 -88.546875 C 23.097656 -90.585938 26.894531 -91.609375 31.0625 -91.609375 C 35.300781 -91.609375 39.128906 -90.585938 42.546875 -88.546875 C 45.972656 -86.515625 48.703125 -83.765625 50.734375 -80.296875 C 52.773438 -76.835938 53.796875 -73.023438 53.796875 -68.859375 C 53.796875 -64.617188 52.753906 -60.765625 50.671875 -57.296875 C 48.597656 -53.835938 45.867188 -51.109375 42.484375 -49.109375 L 56.265625 -34.828125 L 56.265625 -52.359375 L 80.4375 -52.359375 L 80.4375 -38.71875 L 69 -38.71875 L 69 -30.921875 C 69 -29.617188 68.890625 -28.535156 68.671875 -27.671875 C 68.453125 -26.804688 68.171875 -25.769531 67.828125 -24.5625 Z M 31.0625 -77.1875 C 28.800781 -77.1875 26.847656 -76.363281 25.203125 -74.71875 C 23.554688 -73.070312 22.734375 -71.117188 22.734375 -68.859375 C 22.734375 -66.609375 23.554688 -64.640625 25.203125 -62.953125 C 26.847656 -61.265625 28.800781 -60.421875 31.0625 -60.421875 C 33.3125 -60.421875 35.257812 -61.265625 36.90625 -62.953125 C 38.550781 -64.640625 39.375 -66.609375 39.375 -68.859375 C 39.375 -71.117188 38.550781 -73.070312 36.90625 -74.71875 C 35.257812 -76.363281 33.3125 -77.1875 31.0625 -77.1875 Z M 28.328125 -41.96875 C 25.984375 -40.40625 24.097656 -38.453125 22.671875 -36.109375 C 21.242188 -33.773438 20.550781 -31.332031 20.59375 -28.78125 C 20.632812 -26.226562 21.566406 -23.695312 23.390625 -21.1875 C 25.210938 -18.757812 27.742188 -17.023438 30.984375 -15.984375 C 34.234375 -14.941406 37.566406 -14.832031 40.984375 -15.65625 C 44.410156 -16.476562 47.207031 -18.445312 49.375 -21.5625 Z M 28.328125 -41.96875 "/></g></g></g><g fill="#000000" fill-opacity="1"><g transform="translate(1165.861222, 1486.542608)"><g/></g></g><g fill="#000000" fill-opacity="1"><g transform="translate(1211.729445, 1486.542608)"><g><path d="M 10.65625 0 L 10.65625 -90.953125 L 25.859375 -90.953125 L 25.859375 0 Z M 10.65625 0 "/></g></g></g><g fill="#000000" fill-opacity="1"><g transform="translate(1249.151746, 1486.542608)"><g><path d="M 37.6875 -37.9375 L 25.34375 -37.9375 L 25.34375 0 L 10.140625 0 L 10.140625 -90.953125 L 40.40625 -90.953125 C 40.40625 -90.953125 41.140625 -90.910156 42.609375 -90.828125 C 44.085938 -90.742188 45.972656 -90.460938 48.265625 -89.984375 C 50.566406 -89.503906 53.015625 -88.722656 55.609375 -87.640625 C 58.210938 -86.554688 60.660156 -85.039062 62.953125 -83.09375 C 65.242188 -81.144531 67.125 -78.65625 68.59375 -75.625 C 70.070312 -72.59375 70.8125 -68.867188 70.8125 -64.453125 C 70.8125 -59.597656 69.921875 -55.566406 68.140625 -52.359375 C 66.367188 -49.160156 64.140625 -46.609375 61.453125 -44.703125 C 58.773438 -42.796875 56.050781 -41.320312 53.28125 -40.28125 L 71.859375 0 L 55.09375 0 Z M 25.34375 -53.015625 L 40.40625 -53.015625 C 40.40625 -53.015625 41.160156 -53.078125 42.671875 -53.203125 C 44.191406 -53.335938 45.96875 -53.75 48 -54.4375 C 50.039062 -55.132812 51.816406 -56.257812 53.328125 -57.8125 C 54.847656 -59.375 55.609375 -61.585938 55.609375 -64.453125 C 55.609375 -67.304688 54.847656 -69.488281 53.328125 -71 C 51.816406 -72.519531 50.039062 -73.625 48 -74.3125 C 45.96875 -75.007812 44.191406 -75.421875 42.671875 -75.546875 C 41.160156 -75.679688 40.40625 -75.75 40.40625 -75.75 L 25.34375 -75.75 Z M 25.34375 -53.015625 "/></g></g></g><g fill="#000000" fill-opacity="1"><g transform="translate(1328.024342, 1486.542608)"><g><path d="M 37.6875 -37.9375 L 25.34375 -37.9375 L 25.34375 0 L 10.140625 0 L 10.140625 -90.953125 L 40.40625 -90.953125 C 40.40625 -90.953125 41.140625 -90.910156 42.609375 -90.828125 C 44.085938 -90.742188 45.972656 -90.460938 48.265625 -89.984375 C 50.566406 -89.503906 53.015625 -88.722656 55.609375 -87.640625 C 58.210938 -86.554688 60.660156 -85.039062 62.953125 -83.09375 C 65.242188 -81.144531 67.125 -78.65625 68.59375 -75.625 C 70.070312 -72.59375 70.8125 -68.867188 70.8125 -64.453125 C 70.8125 -59.597656 69.921875 -55.566406 68.140625 -52.359375 C 66.367188 -49.160156 64.140625 -46.609375 61.453125 -44.703125 C 58.773438 -42.796875 56.050781 -41.320312 53.28125 -40.28125 L 71.859375 0 L 55.09375 0 Z M 25.34375 -53.015625 L 40.40625 -53.015625 C 40.40625 -53.015625 41.160156 -53.078125 42.671875 -53.203125 C 44.191406 -53.335938 45.96875 -53.75 48 -54.4375 C 50.039062 -55.132812 51.816406 -56.257812 53.328125 -57.8125 C 54.847656 -59.375 55.609375 -61.585938 55.609375 -64.453125 C 55.609375 -67.304688 54.847656 -69.488281 53.328125 -71 C 51.816406 -72.519531 50.039062 -73.625 48 -74.3125 C 45.96875 -75.007812 44.191406 -75.421875 42.671875 -75.546875 C 41.160156 -75.679688 40.40625 -75.75 40.40625 -75.75 L 25.34375 -75.75 Z M 25.34375 -53.015625 "/></g></g></g><g fill="#000000" fill-opacity="1"><g transform="translate(1406.896939, 1486.542608)"><g><path d="M 10.65625 0 L 10.65625 -90.953125 L 25.859375 -90.953125 L 25.859375 0 Z M 10.65625 0 "/></g></g></g><g fill="#000000" fill-opacity="1"><g transform="translate(1444.319239, 1486.542608)"><g><path d="M 90.953125 -51.71875 L 90.953125 0.125 L 77.703125 0.125 L 76.921875 -8.1875 C 73.191406 -4.71875 69.289062 -2.269531 65.21875 -0.84375 C 61.15625 0.582031 56.4375 1.296875 51.0625 1.296875 C 42.914062 1.296875 35.550781 -0.539062 28.96875 -4.21875 C 22.382812 -7.90625 17.164062 -13.234375 13.3125 -20.203125 C 9.457031 -27.179688 7.53125 -35.609375 7.53125 -45.484375 C 7.53125 -52.234375 8.695312 -58.46875 11.03125 -64.1875 C 13.375 -69.90625 16.644531 -74.863281 20.84375 -79.0625 C 25.050781 -83.269531 29.90625 -86.519531 35.40625 -88.8125 C 40.90625 -91.101562 46.773438 -92.25 53.015625 -92.25 C 59.335938 -92.25 65.25 -91.054688 70.75 -88.671875 C 76.25 -86.296875 81.035156 -83.03125 85.109375 -78.875 L 74.453125 -68.21875 C 71.765625 -70.988281 68.554688 -73.148438 64.828125 -74.703125 C 61.109375 -76.265625 57.171875 -77.046875 53.015625 -77.046875 C 47.472656 -77.046875 42.40625 -75.789062 37.8125 -73.28125 C 33.21875 -70.769531 29.554688 -67.175781 26.828125 -62.5 C 24.097656 -57.820312 22.734375 -52.148438 22.734375 -45.484375 C 22.734375 -38.117188 24.097656 -32.097656 26.828125 -27.421875 C 29.554688 -22.742188 33.21875 -19.320312 37.8125 -17.15625 C 42.40625 -14.988281 47.472656 -13.90625 53.015625 -13.90625 C 57.609375 -13.90625 61.851562 -14.8125 65.75 -16.625 C 69.644531 -18.445312 72.976562 -20.960938 75.75 -24.171875 L 75.75 -38.328125 L 51.578125 -38.328125 L 51.578125 -51.71875 Z M 90.953125 -51.71875 "/></g></g></g><g fill="#000000" fill-opacity="1"><g transform="translate(1545.80108, 1486.542608)"><g><path d="M 52.234375 -10.53125 L 20.265625 -10.53125 L 16.375 0 L 0 0 L 36.25 -93.5625 L 72.640625 0 L 56.265625 0 Z M 25.203125 -23.65625 L 47.296875 -23.65625 L 36.25 -55.21875 Z M 25.203125 -23.65625 "/></g></g></g><g fill="#000000" fill-opacity="1"><g transform="translate(1619.476158, 1486.542608)"><g><path d="M 55.875 -77.046875 L 36.765625 -77.046875 L 36.765625 0 L 21.703125 0 L 21.703125 -77.046875 L 2.59375 -77.046875 L 2.59375 -90.953125 L 55.875 -90.953125 Z M 55.875 -77.046875 "/></g></g></g><g fill="#000000" fill-opacity="1"><g transform="translate(1678.728111, 1486.542608)"><g><path d="M 10.65625 0 L 10.65625 -90.953125 L 25.859375 -90.953125 L 25.859375 0 Z M 10.65625 0 "/></g></g></g><g fill="#000000" fill-opacity="1"><g transform="translate(1716.150412, 1486.542608)"><g><path d="M 51.578125 -93.03125 C 59.035156 -93.03125 65.554688 -91.707031 71.140625 -89.0625 C 76.722656 -86.425781 81.378906 -82.898438 85.109375 -78.484375 C 88.835938 -74.066406 91.648438 -69.082031 93.546875 -63.53125 C 95.453125 -57.988281 96.40625 -52.269531 96.40625 -46.375 C 96.40625 -40.488281 95.472656 -34.773438 93.609375 -29.234375 C 91.753906 -23.691406 88.960938 -18.710938 85.234375 -14.296875 C 81.515625 -9.878906 76.835938 -6.347656 71.203125 -3.703125 C 65.578125 -1.054688 59.035156 0.265625 51.578125 0.265625 C 44.046875 0.265625 37.484375 -1.054688 31.890625 -3.703125 C 26.304688 -6.347656 21.628906 -9.878906 17.859375 -14.296875 C 14.097656 -18.710938 11.285156 -23.691406 9.421875 -29.234375 C 7.554688 -34.773438 6.625 -40.488281 6.625 -46.375 C 6.625 -52.269531 7.554688 -57.988281 9.421875 -63.53125 C 11.285156 -69.082031 14.097656 -74.066406 17.859375 -78.484375 C 21.628906 -82.898438 26.328125 -86.425781 31.953125 -89.0625 C 37.585938 -91.707031 44.128906 -93.03125 51.578125 -93.03125 Z M 51.578125 -14.421875 C 57.210938 -14.421875 62.039062 -15.566406 66.0625 -17.859375 C 70.09375 -20.160156 73.300781 -23.21875 75.6875 -27.03125 C 78.070312 -30.84375 79.675781 -35.019531 80.5 -39.5625 C 81.320312 -44.113281 81.320312 -48.640625 80.5 -53.140625 C 79.675781 -57.648438 78.070312 -61.804688 75.6875 -65.609375 C 73.300781 -69.421875 70.09375 -72.472656 66.0625 -74.765625 C 62.039062 -77.066406 57.210938 -78.21875 51.578125 -78.21875 C 45.953125 -78.21875 41.144531 -77.066406 37.15625 -74.765625 C 33.175781 -72.472656 29.972656 -69.421875 27.546875 -65.609375 C 25.117188 -61.804688 23.492188 -57.648438 22.671875 -53.140625 C 21.847656 -48.640625 21.847656 -44.113281 22.671875 -39.5625 C 23.492188 -35.019531 25.097656 -30.84375 27.484375 -27.03125 C 29.867188 -23.21875 33.070312 -20.160156 37.09375 -17.859375 C 41.125 -15.566406 45.953125 -14.421875 51.578125 -14.421875 Z M 51.578125 -14.421875 "/></g></g></g><g fill="#000000" fill-opacity="1"><g transform="translate(1820.7508, 1486.542608)"><g><path d="M 86.015625 0 L 70.6875 0 L 25.46875 -64.703125 L 25.46875 0 L 10.265625 0 L 10.265625 -90.953125 L 25.59375 -90.953125 L 70.953125 -26.25 L 70.953125 -90.953125 L 86.015625 -90.953125 Z M 86.015625 0 "/></g></g></g></svg>